# xmcd CD database file generated by Grip 2.92
# 
# Track frame offsets:
#       150
#       13122
#       26007
#       38642
#       51890
#       64722
#       76855
#       88632
#       101830
#       115890
#       129900
#       143210
#       157382
#       171920
#       183930
#       196237
#       210625
#       223880
#       235882
#       248595
#       261987
#       275752
#       289162
#       301605
#       314195
# 
# Disc length: 4340 seconds
# 
# Revision: 3
# Processed by: cddbd v1.4b41PL1 Copyright (c) Steve Scherf et al.
# Submitted via: Grip 2.92
# 
DISCID=7310f219
DTITLE=Various Artist - Le Gran Mamou
DYEAR=1900
DGENRE=
TTITLE0=Basile
TTITLE1=Saut' Crapaud
TTITLE2=Quelqu'un est Jaloux
TTITLE3=Les Blues de Voyage
TTITLE4=Mon Vieux D'Autrefois
TTITLE5=Je Vais Jouer Celea Pour Toi
TTITLE6=L'Abandoner
TTITLE7=Trois Jours Apres Ma Mort
TTITLE8=O! Bebe!
TTITLE9=Ma Cherie
TTITLE10=La Valse J'Aime
TTITLE11=Grosse Mama
TTITLE12=Belle of Point Clair
TTITLE13=One-Step de Lacassine
TTITLE14=Jolie Blonde
TTITLE15=Il y a pas la clair de lune
TTITLE16=Lake Charles Waltz
TTITLE17=Valse de Marais Bulleur
TTITLE18=La Two-Step a Erby
TTITLE19=Le Gran Mamou
TTITLE20=Alberta
TTITLE21=Je va t'aimer quand meme
TTITLE22=Viens Doc Me Rejoindre
TTITLE23=Barroom Blues
TTITLE24=La Veuve de la Coulee
EXTD=
EXTT0=
EXTT1=
EXTT2=
EXTT3=
EXTT4=
EXTT5=
EXTT6=
EXTT7=
EXTT8=
EXTT9=
EXTT10=
EXTT11=
EXTT12=
EXTT13=
EXTT14=
EXTT15=
EXTT16=
EXTT17=
EXTT18=
EXTT19=
EXTT20=
EXTT21=
EXTT22=
EXTT23=
EXTT24=
PLAYORDER=
